<svg xmlns="http://www.w3.org/2000/svg" width="24" height="24" viewBox="0 0 24 24"><defs><style>.a{fill:#fff;}.b{fill:#f5d424;}</style></defs><g transform="translate(-320 -781)"><rect class="a" width="24" height="24" transform="translate(320 781)"/><g transform="translate(320 783.502)"><path class="b" d="M771.777,379.507l-.474-.681-2.944-4.231a1.738,1.738,0,0,0-2.707,0l-2.945,4.231-.474.681-3.479-2.02c-1.078-.626-2.549.065-2.455,1.154l.467,7.077a1.467,1.467,0,0,0,1.561,1.226h17.358a1.467,1.467,0,0,0,1.561-1.226l.467-7.077c.094-1.089-1.378-1.78-2.455-1.154Z" transform="translate(-754.807 -370.166)"/><circle class="b" cx="1.282" cy="1.282" r="1.282" transform="translate(11.118 0)"/><circle class="b" cx="1.28" cy="1.28" r="1.28" transform="translate(0 3.117)"/><circle class="b" cx="1.28" cy="1.28" r="1.28" transform="translate(21.44 3.117)"/></g></g></svg>